HIERARCHY
ROOT hip
{
	OFFSET	0.00  0.00  0.00 
	CHANNELS 6 Xposition Yposition Zposition Xrotation Zrotation Yrotation
	JOINT abdomen
	{
		OFFSET	0.000000 3.402643 0.000000
		CHANNELS 3 Xrotation Zrotation Yrotation
		JOINT chest
		{
			OFFSET	0.000000 8.438564 -0.680529
			CHANNELS 3 Xrotation Zrotation Yrotation
			JOINT neck
			{
				OFFSET	0.000000 10.207942 -0.272212
				CHANNELS 3 Xrotation Zrotation Yrotation
				JOINT head
				{
					OFFSET	0.000000 3.130431 0.000000
					CHANNELS 3 Xrotation Zrotation Yrotation
					End Site
					{
						OFFSET 0.000000 3.130435 0.000000
					}
				}
			}
			JOINT lCollar
			{
				OFFSET	3.402647 6.669187 -0.816635
				CHANNELS 3 Yrotation Zrotation Xrotation
				JOINT lShldr
				{
					OFFSET	3.266541 0.000000 0.000000
					CHANNELS 3 Zrotation Yrotation Xrotation
					JOINT lForeArm
					{
						OFFSET	10.071835 0.000000 0.000000
						CHANNELS 3 Yrotation Zrotation Xrotation
						JOINT lHand
						{
							OFFSET	8.438563 0.000000 0.000000
							CHANNELS 3 Zrotation Yrotation Xrotation
							End Site
							{
								OFFSET 4.083176 0.000000 0.000000
							}
						}
					}
				}
			}
			JOINT rCollar
			{
				OFFSET	-3.538753 6.669187 -0.816635
				CHANNELS 3 Yrotation Zrotation Xrotation
				JOINT rShldr
				{
					OFFSET	-3.130435 0.000000 0.000000
					CHANNELS 3 Zrotation Yrotation Xrotation
					JOINT rForeArm
					{
						OFFSET	-10.207940 0.000000 0.000000
						CHANNELS 3 Yrotation Zrotation Xrotation
						JOINT rHand
						{
							OFFSET	-8.302459 0.000000 0.000000
							CHANNELS 3 Zrotation Yrotation Xrotation
							End Site
							{
								OFFSET -4.083176 0.000000 0.000000
							}
						}
					}
				}
			}
		}
	}
	JOINT lThigh
	{
		OFFSET	5.308129 -1.633274 1.361059
		CHANNELS 3 Xrotation Zrotation Yrotation
		JOINT lShin
		{
			OFFSET	-2.041588 -20.007561 0.000000
			CHANNELS 3 Xrotation Zrotation Yrotation
			JOINT lFoot
			{
				OFFSET	0.000000 -19.190928 -1.224953
				CHANNELS 3 Xrotation Yrotation Zrotation
				End Site
				{
					OFFSET 0.000000 -2.449905 4.627600
				}
			}
		}
	}
	JOINT rThigh
	{
		OFFSET	-5.308129 -1.633274 1.361059
		CHANNELS 3 Xrotation Zrotation Yrotation
		JOINT rShin
		{
			OFFSET	2.041588 -20.007561 0.000000
			CHANNELS 3 Xrotation Zrotation Yrotation
			JOINT rFoot
			{
				OFFSET	0.000000 -19.190928 -1.224953
				CHANNELS 3 Xrotation Yrotation Zrotation
				End Site
				{
					OFFSET 0.000000 -2.449905 4.627600
				}
			}
		}
	}
	JOINT cyl_1
	{
		OFFSET	0.000000 0.000000 0.000000
		CHANNELS 3 Xrotation Zrotation Yrotation
		End Site
		{
			OFFSET 0.000000 -2.858223 0.000000
		}
	}
}
MOTION
Frames:     13
Frame Time: 0.033333
0.000000 46.200199 0.000000 0.000000 0.000000 0.000000 -0.341797 0.000000 0.000000 -0.429804 0.000000 -0.449113 0.000000 0.000000 0.000000 0.000000 0.000000 0.000000 0.281988 -8.000000 -0.002729 0.000000 -4.000000 0.000000 -8.000000 0.000000 0.000000 -7.000000 0.000000 0.000000 0.000000 8.000000 -0.194249 -0.260207 4.000000 -0.449221 8.000000 0.000000 0.000000 7.000000 0.000000 0.000000 -5.121420 4.965990 0.036196 10.211700 -1.980570 -0.079563 13.613300 2.331480 5.490040 -5.122600 -5.419650 -0.144222 10.347700 2.290680 0.119386 14.681200 -1.728550 -5.011670 0.000000 0.000000 0.000000 
-1.960741 41.259094 0.000000 -8.540680 -8.653990 4.804830 3.341400 4.138060 1.693220 9.593520 8.507670 -8.726430 0.229680 -0.558679 0.000000 0.000000 -1.488580 5.000000 1.045350 1.640352 -7.559492 -83.872299 -9.248000 43.489899 -14.238400 -0.312704 -9.996550 -2.461300 -1.738200 1.312010 -4.502042 -0.360213 -1.415081 80.212502 -14.110600 -13.180600 -13.314300 0.217643 -7.293360 12.995700 -15.149100 0.000000 25.148500 9.909140 -7.197810 23.462500 -2.226170 7.508230 1.830438 -11.972835 2.327159 -6.595840 16.035999 1.432050 1.442210 0.741194 0.042596 -6.705546 -8.287344 1.718067 0.000000 0.000000 0.000000 
-1.885216 41.489372 0.000000 -7.564870 -8.451450 4.227480 1.129540 4.743910 1.797940 10.648900 7.353010 -8.281520 0.229680 -0.538788 0.000000 0.000000 -1.394580 4.901680 1.279767 1.552347 -7.154067 -83.628502 -7.691540 39.722599 -17.004601 -0.306417 -8.543990 -3.157980 -0.621377 1.225240 -4.277475 -0.447968 -1.820614 80.377701 -16.029499 -8.591940 -11.083300 0.223930 -10.274800 12.299000 -14.032300 0.086768 21.882401 9.464360 -8.014950 33.301201 -3.150990 7.248420 14.726774 -13.229303 3.413121 -8.183400 14.179100 1.508740 8.965480 4.707540 0.333593 3.829189 -10.969309 2.110516 0.000000 0.000000 0.000000 
-1.808752 41.757881 0.000000 -6.326920 -8.201400 3.583210 -1.499850 5.506090 1.912460 11.904300 5.933090 -7.753050 0.229680 -0.510803 0.000000 0.000000 -1.315010 4.834030 1.572766 1.444768 -6.641461 -83.340797 -5.702140 34.907398 -19.387699 -0.298307 -7.215400 -4.056690 0.819307 1.113310 -3.984562 -0.555295 -2.353130 80.552399 -16.418400 -2.563240 -8.868990 0.232039 -13.525700 11.400300 -12.591600 0.198698 17.502100 9.262080 -9.018720 38.781200 -3.696680 7.043850 14.997837 -11.496505 4.634621 -8.925700 12.731200 1.988790 14.871700 7.682340 0.894396 -2.032691 -12.088637 -2.476531 0.000000 0.000000 0.000000 
-1.718568 42.070992 0.000000 -4.948560 -7.880960 2.928160 -3.874010 6.282230 2.040190 13.039100 4.405800 -7.174620 0.229680 -0.477205 0.000000 0.000000 -1.244200 4.797820 1.904801 1.317631 -6.040123 -83.034897 -3.407860 29.354300 -19.040199 -0.288992 -7.086280 -5.088950 2.474090 0.984747 -3.642837 -0.682213 -2.963351 80.715698 -15.419200 3.778210 -6.926490 0.241354 -17.161301 10.368000 -10.936800 0.327262 8.522970 9.017040 -10.854400 47.260300 -4.491780 6.625020 9.331984 -7.781826 5.865278 -6.986790 12.608500 2.984500 15.325900 7.764840 0.949359 -5.931981 -11.164780 -7.146857 0.000000 0.000000 0.000000 
-1.582394 42.469849 0.000000 -3.785380 -7.262950 2.239470 -5.539070 6.952090 2.203790 13.840000 2.818420 -6.529890 0.229680 -0.440390 0.000000 0.000000 -1.148550 4.759820 2.090341 1.249168 -5.719621 -82.710403 -1.202640 24.016701 -17.899000 -0.284004 -7.470990 -5.641770 3.360300 0.915896 -3.467095 -0.750577 -3.287657 80.872200 -13.332800 7.093330 -5.155660 0.246343 -19.217800 9.815210 -10.050600 0.396113 3.352780 8.020000 -11.832600 49.780300 -4.541090 6.504930 5.273249 -3.125940 6.239799 -5.026320 12.062200 3.631220 13.204700 6.755240 0.739099 -6.608304 -9.573024 -10.607265 0.000000 0.000000 0.000000 
-1.368014 42.969051 0.000000 -2.971060 -6.184760 1.494280 -6.505280 7.395450 2.425910 14.328900 1.212320 -5.812620 0.229680 -0.402753 0.000000 0.000000 -0.994448 4.686800 2.471169 1.112246 -5.048178 -82.366997 0.896583 18.935699 -14.289100 -0.273606 -8.929410 -6.793980 5.207360 0.772393 -3.086308 -0.887383 -3.963855 81.026497 -10.226600 13.837500 -3.471720 0.256740 -23.996500 8.663000 -8.203520 0.539615 -5.932330 6.732450 -13.778200 52.471802 -4.656980 6.381150 -1.488599 1.095692 6.827345 1.179330 12.055500 5.202640 7.282920 3.657020 0.250489 -4.655599 -7.839561 -11.839783 0.000000 0.000000 0.000000 
-1.053355 43.477070 0.000000 -2.558480 -4.870710 0.669716 -6.898910 7.506620 2.744090 14.586600 -0.371105 -5.056850 0.229680 -0.366688 0.000000 0.000000 -0.748282 4.545530 2.851968 0.965600 -4.364666 -82.006897 3.001130 13.841800 -9.718730 -0.262971 -11.027100 -7.972550 7.096680 0.625607 -2.705519 -1.034003 -4.648461 81.183098 -6.253850 20.739100 -1.789900 0.267376 -29.720699 7.484440 -6.314200 0.686400 -14.084900 4.452180 -15.479500 51.241798 -4.980220 6.358620 -6.143448 2.750971 7.303343 6.905610 11.178000 6.432670 2.676880 1.217210 0.104388 -2.821552 -8.026167 -10.236807 0.000000 0.000000 0.000000 
-0.657137 43.875843 0.000000 -2.600490 -3.419140 -0.257076 -6.753590 7.238090 3.255400 14.693900 -1.890490 -4.306730 0.229680 -0.334592 0.000000 0.000000 -0.376443 4.302780 3.047249 0.897167 -4.022515 -81.642197 5.184140 8.557990 -7.377030 -0.257685 -12.211000 -8.558330 8.035710 0.552652 -2.510239 -1.112213 -4.990154 81.346497 -1.589260 24.123199 -0.025404 0.272662 -32.741199 6.898680 -5.375170 0.759356 -15.321800 1.707790 -16.091600 45.919102 -4.445360 6.655130 -6.122407 3.601285 7.563279 9.295710 9.340800 6.854660 1.640890 0.711378 0.117281 -1.798407 -8.841182 -8.401076 0.000000 0.000000 0.000000 
-0.208264 44.047295 0.000000 -3.189950 -1.868980 -1.308960 -5.882260 6.594840 4.044590 14.731400 -3.304450 -3.606390 0.229680 -0.308859 0.000000 0.000000 0.135654 3.925330 3.418262 0.750615 -3.355505 -81.287697 7.365980 3.277020 -3.026270 -0.247419 -14.639000 -9.696050 9.859560 0.410955 -2.139180 -1.249129 -5.652113 81.521202 3.592420 29.747999 1.906540 0.282929 -38.561199 5.760970 -3.551340 0.901054 -18.663099 -0.488347 -17.462500 38.117901 -3.770850 7.025580 -7.663163 5.276127 7.570692 13.468600 6.814690 7.519110 1.336470 0.502934 0.173877 -3.020117 -9.730410 -4.914194 0.000000 0.000000 0.000000 
0.264356 43.908943 0.000000 -4.466460 -0.259177 -2.493200 -4.474990 5.709670 5.087660 14.780000 -4.571620 -2.999960 0.229680 -0.291885 0.000000 0.000000 0.726490 3.379940 3.759989 0.623655 -2.736401 -80.957901 9.428810 -1.715900 0.825132 -0.237882 -16.868200 -10.752900 11.553800 0.279325 -1.797394 -1.376276 -6.263875 81.711899 9.009640 36.848801 4.090700 0.292466 -43.369701 4.704080 -1.857080 1.032690 -18.696800 -1.621190 -17.874599 26.957001 -2.753900 7.426350 -7.331250 6.945597 6.649736 18.484900 3.728440 8.218320 0.655699 0.165871 0.166775 -3.037778 -7.607416 -0.078730 0.000000 0.000000 0.000000 
0.731818 43.520660 0.000000 -6.156850 1.371330 -3.754630 -2.533120 4.657320 6.333440 14.920400 -5.650610 -2.510220 0.229680 -0.286065 0.000000 0.000000 1.315520 2.650680 4.062665 0.516278 -2.185193 -80.667603 11.254800 -6.135590 4.174810 -0.229461 -18.563299 -11.686100 13.049800 0.163102 -1.484880 -1.493639 -6.806278 81.922897 13.953700 42.292801 6.611860 0.300887 -46.306301 3.770900 -0.361131 1.148910 -18.430000 -3.729120 -16.524500 18.739901 -1.941630 7.592640 -7.816678 11.740848 5.664940 23.656000 0.613144 8.858000 0.521031 0.029196 0.224843 -1.427414 -6.288710 0.609313 0.000000 0.000000 0.000000 
1.165216 42.977905 0.000000 -7.874760 2.983610 -5.022520 -0.655953 3.488490 7.730740 15.284700 -6.501790 -2.074520 0.229680 -0.293794 0.000000 0.000000 1.822200 1.790790 4.199353 0.457752 -1.947749 -80.429604 12.743800 -9.739710 5.660760 -0.225790 -19.105801 -12.092900 13.701900 0.112436 -1.357914 -1.542536 -7.038502 82.158997 17.738001 44.734402 9.554800 0.304558 -46.803799 3.364100 0.290997 1.199570 -18.020700 -6.035470 -14.910600 16.359699 -1.680930 7.664040 -7.826371 13.328063 5.087628 27.073999 -2.486680 9.097540 0.664346 0.267132 0.266679 -2.098906 -5.467028 1.442971 0.000000 0.000000 0.000000 
